<?xml version="1.0" encoding="utf-8"?>
<!-- Generator: Adobe Illustrator 17.0.0, SVG Export Plug-In . SVG Version: 6.00 Build 0)  -->
<!DOCTYPE svg PUBLIC "-//W3C//DTD SVG 1.1//EN" "http://www.w3.org/Graphics/SVG/1.1/DTD/svg11.dtd">
<svg version="1.1" id="Layer_1" xmlns="http://www.w3.org/2000/svg" xmlns:xlink="http://www.w3.org/1999/xlink" x="0px" y="0px"
	 width="133px" height="46px" viewBox="0 0 133 46" enable-background="new 0 0 133 46" xml:space="preserve">
<path fill="none" d="M83.158,27.805C83.158,33.436,78.645,38,73.079,38C67.512,38,63,33.436,63,27.805
	c0-5.631,4.512-10.195,10.079-10.195C78.645,17.61,83.158,22.174,83.158,27.805z"/>
<path fill="#FFFFFF" d="M73.079,34c3.314,0,6.079-2.73,6.079-6.195c0-3.465-2.765-6.195-6.079-6.195
	c-3.314,0-6.079,2.73-6.079,6.195C67,31.27,69.765,34,73.079,34z M73.079,38c5.566,0,10.079-4.565,10.079-10.195
	c0-5.631-4.512-10.195-10.079-10.195C67.512,17.61,63,22.174,63,27.805C63,33.436,67.512,38,73.079,38z"/>
<path fill="none" d="M58.315,27.805C58.315,33.436,53.803,38,48.237,38c-5.566,0-10.079-4.565-10.079-10.195
	c0-5.631,4.512-10.195,10.079-10.195C53.803,17.61,58.315,22.174,58.315,27.805z"/>
<path fill="#FFFFFF" d="M48.237,34c3.314,0,6.079-2.73,6.079-6.195c0-3.465-2.765-6.195-6.079-6.195
	c-3.314,0-6.079,2.73-6.079,6.195C42.158,31.27,44.922,34,48.237,34z M48.237,38c5.566,0,10.079-4.565,10.079-10.195
	c0-5.631-4.512-10.195-10.079-10.195c-5.566,0-10.079,4.565-10.079,10.195C38.158,33.436,42.67,38,48.237,38z"/>
<path fill="#FFFFFF" d="M55.266,16.764c0.062-0.047,0.138-0.099,0.229-0.156c0.869-0.539,2.497-1.052,4.601-1.101
	c4.116-0.097,9.546,1.593,13.447,7.447c0.612,0.919,1.854,1.168,2.773,0.555c0.919-0.613,1.168-1.854,0.555-2.773
	c-4.758-7.14-11.567-9.352-16.87-9.228c-2.606,0.061-4.983,0.689-6.615,1.701c-0.799,0.495-1.61,1.202-2.037,2.17
	c-0.49,1.11-0.365,2.341,0.395,3.357c1.876,2.506,3.137,4.274,3.947,5.527c0.173,0.267,0.321,0.505,0.448,0.717l-9.034,0.614
	c-1.102,0.075-1.935,1.029-1.86,2.131c0.075,1.102,1.029,1.935,2.131,1.86l9.661-0.656l0.147-0.032
	c0.178-0.039,0.353-0.064,0.598-0.099c0.022-0.003,0.045-0.006,0.068-0.01l0.019-0.003c0.228-0.033,0.613-0.088,0.977-0.204
	c0.378-0.121,1.038-0.4,1.488-1.096c0.468-0.722,0.455-1.491,0.352-2.035c-0.18-0.954-0.807-2.076-1.636-3.359
	C58.214,20.795,56.985,19.07,55.266,16.764z"/>
<path fill="#FFFFFF" d="M74.013,12.235c-0.582-0.216-1.729-0.378-3.813-0.046c-1.091,0.174-2.116-0.57-2.29-1.66
	c-0.174-1.091,0.57-2.116,1.66-2.29c2.423-0.386,4.346-0.306,5.833,0.246c1.584,0.587,2.551,1.668,3.005,2.909
	c0.419,1.144,0.347,2.268,0.228,3c-0.063,0.383-0.146,0.707-0.216,0.939c-0.035,0.117-0.067,0.214-0.093,0.286
	c-0.013,0.036-0.024,0.067-0.033,0.091l-0.012,0.031l-0.005,0.012l-0.002,0.005l-0.001,0.002c0,0.001-0.001,0.002-1.859-0.737
	l1.858,0.739c-0.408,1.026-1.571,1.527-2.597,1.119c-1.021-0.406-1.522-1.559-1.125-2.582l0,0c0.001-0.002,0.002-0.006,0.004-0.011
	c0.006-0.018,0.019-0.054,0.034-0.105c0.031-0.103,0.071-0.257,0.1-0.437c0.064-0.394,0.051-0.743-0.036-0.98
	C74.6,12.627,74.498,12.415,74.013,12.235z M74.555,14.288C74.555,14.288,74.556,14.288,74.555,14.288
	C74.556,14.288,74.556,14.288,74.555,14.288L74.555,14.288z"/>
</svg>
